<?xml version="1.0" standalone="no"?>
<!DOCTYPE svg PUBLIC "-//W3C//DTD SVG 20010904//EN" "http://www.w3.org/TR/2001/REC-SVG-20010904/DTD/svg10.dtd">
<svg version="1.0" xmlns="http://www.w3.org/2000/svg" width="350.000000pt" height="350.000000pt" viewBox="0 0 350.000000 350.000000" preserveAspectRatio="xMidYMid meet">
	<g transform="translate(0.000000,350.000000) scale(0.100000,-0.100000)" fill="#fff" stroke="none">
		<path d="M1694 3069 c-19 -21 -19 -53 -15 -1248 4 -1353 -1 -1261 66 -1261 70 0 65 -99 65 1267 0 1179 -1 1231 -18 1246 -26 24 -75 21 -98 -4z"/>
		<path d="M196 2991 c-4 -7 6 -27 24 -47 17 -20 96 -109 177 -199 80 -90 152 -173 160 -185 13 -19 10 -24 -40 -78 -101 -107 -327 -370 -327 -379 0 -15 314 -23 912 -23 l548 0 0 455 0 455 -477 0 c-263 0 -589 3 -724 7 -185 4 -248 3 -253 -6z"/>
	</g>
</svg>
